<svg id="visual" viewBox="0 0 960 300" width="960" height="300" xmlns="http://www.w3.org/2000/svg" xmlns:xlink="http://www.w3.org/1999/xlink" version="1.1"><rect x="0" y="0" width="960" height="300" fill="#202731"></rect><path d="M0 93L22.8 89.7C45.7 86.3 91.3 79.7 137 73.5C182.7 67.3 228.3 61.7 274 61.3C319.7 61 365.3 66 411.2 67.5C457 69 503 67 548.8 70.3C594.7 73.7 640.3 82.3 686 85.8C731.7 89.3 777.3 87.7 823 87.3C868.7 87 914.3 88 937.2 88.5L960 89L960 301L937.2 301C914.3 301 868.7 301 823 301C777.3 301 731.7 301 686 301C640.3 301 594.7 301 548.8 301C503 301 457 301 411.2 301C365.3 301 319.7 301 274 301C228.3 301 182.7 301 137 301C91.3 301 45.7 301 22.8 301L0 301Z" fill="#ffc900"></path><path d="M0 136L22.8 133C45.7 130 91.3 124 137 122.2C182.7 120.3 228.3 122.7 274 119.2C319.7 115.7 365.3 106.3 411.2 107.2C457 108 503 119 548.8 124.7C594.7 130.3 640.3 130.7 686 126.8C731.7 123 777.3 115 823 116.3C868.7 117.7 914.3 128.3 937.2 133.7L960 139L960 301L937.2 301C914.3 301 868.7 301 823 301C777.3 301 731.7 301 686 301C640.3 301 594.7 301 548.8 301C503 301 457 301 411.2 301C365.3 301 319.7 301 274 301C228.3 301 182.7 301 137 301C91.3 301 45.7 301 22.8 301L0 301Z" fill="#ffa800"></path><path d="M0 177L22.8 172C45.7 167 91.3 157 137 157.7C182.7 158.3 228.3 169.7 274 176.2C319.7 182.7 365.3 184.3 411.2 181.8C457 179.3 503 172.7 548.8 170.3C594.7 168 640.3 170 686 166.2C731.7 162.3 777.3 152.7 823 148C868.7 143.3 914.3 143.7 937.2 143.8L960 144L960 301L937.2 301C914.3 301 868.7 301 823 301C777.3 301 731.7 301 686 301C640.3 301 594.7 301 548.8 301C503 301 457 301 411.2 301C365.3 301 319.7 301 274 301C228.3 301 182.7 301 137 301C91.3 301 45.7 301 22.8 301L0 301Z" fill="#ff8600"></path><path d="M0 219L22.8 218.2C45.7 217.3 91.3 215.7 137 215.8C182.7 216 228.3 218 274 214.5C319.7 211 365.3 202 411.2 199.3C457 196.7 503 200.3 548.8 201.2C594.7 202 640.3 200 686 198.2C731.7 196.3 777.3 194.7 823 196.3C868.7 198 914.3 203 937.2 205.5L960 208L960 301L937.2 301C914.3 301 868.7 301 823 301C777.3 301 731.7 301 686 301C640.3 301 594.7 301 548.8 301C503 301 457 301 411.2 301C365.3 301 319.7 301 274 301C228.3 301 182.7 301 137 301C91.3 301 45.7 301 22.8 301L0 301Z" fill="#ff5f00"></path><path d="M0 241L22.8 240C45.7 239 91.3 237 137 240.5C182.7 244 228.3 253 274 257.5C319.7 262 365.3 262 411.2 262.7C457 263.3 503 264.7 548.8 262.3C594.7 260 640.3 254 686 249C731.7 244 777.3 240 823 243.5C868.7 247 914.3 258 937.2 263.5L960 269L960 301L937.2 301C914.3 301 868.7 301 823 301C777.3 301 731.7 301 686 301C640.3 301 594.7 301 548.8 301C503 301 457 301 411.2 301C365.3 301 319.7 301 274 301C228.3 301 182.7 301 137 301C91.3 301 45.7 301 22.8 301L0 301Z" fill="#ff1f00"></path></svg>