<svg id="visual" viewBox="0 0 900 300" width="900" height="300" xmlns="http://www.w3.org/2000/svg" xmlns:xlink="http://www.w3.org/1999/xlink" version="1.1"><rect x="0" y="0" width="900" height="300" fill="#202731"></rect><path d="M0 232L21.5 226.8C43 221.7 86 211.3 128.8 212C171.7 212.7 214.3 224.3 257.2 228.5C300 232.7 343 229.3 385.8 224.2C428.7 219 471.3 212 514.2 210.5C557 209 600 213 642.8 217.5C685.7 222 728.3 227 771.2 226.7C814 226.3 857 220.7 878.5 217.8L900 215L900 301L878.5 301C857 301 814 301 771.2 301C728.3 301 685.7 301 642.8 301C600 301 557 301 514.2 301C471.3 301 428.7 301 385.8 301C343 301 300 301 257.2 301C214.3 301 171.7 301 128.8 301C86 301 43 301 21.5 301L0 301Z" fill="#fa7268"></path><path d="M0 248L21.5 243.7C43 239.3 86 230.7 128.8 230.8C171.7 231 214.3 240 257.2 242C300 244 343 239 385.8 237.3C428.7 235.7 471.3 237.3 514.2 238.3C557 239.3 600 239.7 642.8 241.5C685.7 243.3 728.3 246.7 771.2 245.8C814 245 857 240 878.5 237.5L900 235L900 301L878.5 301C857 301 814 301 771.2 301C728.3 301 685.7 301 642.8 301C600 301 557 301 514.2 301C471.3 301 428.7 301 385.8 301C343 301 300 301 257.2 301C214.3 301 171.7 301 128.8 301C86 301 43 301 21.5 301L0 301Z" fill="#eb5967"></path><path d="M0 252L21.5 252.2C43 252.3 86 252.7 128.8 252.5C171.7 252.3 214.3 251.7 257.2 250.3C300 249 343 247 385.8 248.5C428.7 250 471.3 255 514.2 255.7C557 256.3 600 252.7 642.8 253.8C685.7 255 728.3 261 771.2 260C814 259 857 251 878.5 247L900 243L900 301L878.5 301C857 301 814 301 771.2 301C728.3 301 685.7 301 642.8 301C600 301 557 301 514.2 301C471.3 301 428.7 301 385.8 301C343 301 300 301 257.2 301C214.3 301 171.7 301 128.8 301C86 301 43 301 21.5 301L0 301Z" fill="#da3f67"></path><path d="M0 286L21.5 286.2C43 286.3 86 286.7 128.8 283.8C171.7 281 214.3 275 257.2 273.5C300 272 343 275 385.8 275.8C428.7 276.7 471.3 275.3 514.2 274.3C557 273.3 600 272.7 642.8 271.2C685.7 269.7 728.3 267.3 771.2 266.3C814 265.3 857 265.7 878.5 265.8L900 266L900 301L878.5 301C857 301 814 301 771.2 301C728.3 301 685.7 301 642.8 301C600 301 557 301 514.2 301C471.3 301 428.7 301 385.8 301C343 301 300 301 257.2 301C214.3 301 171.7 301 128.8 301C86 301 43 301 21.5 301L0 301Z" fill="#c62368"></path></svg>