<svg id="visual" viewBox="0 0 900 600" width="900" height="600" xmlns="http://www.w3.org/2000/svg" xmlns:xlink="http://www.w3.org/1999/xlink" version="1.1"><rect x="0" y="0" width="900" height="600" fill="#202731"></rect><path d="M0 80L21.5 76.5C43 73 86 66 128.8 68.8C171.7 71.7 214.3 84.3 257.2 87.5C300 90.7 343 84.3 385.8 80.8C428.7 77.3 471.3 76.7 514.2 74.2C557 71.7 600 67.3 642.8 65.8C685.7 64.3 728.3 65.7 771.2 68C814 70.3 857 73.7 878.5 75.3L900 77L900 0L878.5 0C857 0 814 0 771.2 0C728.3 0 685.7 0 642.8 0C600 0 557 0 514.2 0C471.3 0 428.7 0 385.8 0C343 0 300 0 257.2 0C214.3 0 171.7 0 128.8 0C86 0 43 0 21.5 0L0 0Z" fill="#fa7268"></path><path d="M0 44L21.5 43.7C43 43.3 86 42.7 128.8 44.2C171.7 45.7 214.3 49.3 257.2 51.2C300 53 343 53 385.8 54.7C428.7 56.3 471.3 59.7 514.2 59.5C557 59.3 600 55.7 642.8 53.5C685.7 51.3 728.3 50.7 771.2 51.7C814 52.7 857 55.3 878.5 56.7L900 58L900 0L878.5 0C857 0 814 0 771.2 0C728.3 0 685.7 0 642.8 0C600 0 557 0 514.2 0C471.3 0 428.7 0 385.8 0C343 0 300 0 257.2 0C214.3 0 171.7 0 128.8 0C86 0 43 0 21.5 0L0 0Z" fill="#eb5967"></path><path d="M0 31L21.5 30.8C43 30.7 86 30.3 128.8 31.5C171.7 32.7 214.3 35.3 257.2 38.8C300 42.3 343 46.7 385.8 49.5C428.7 52.3 471.3 53.7 514.2 51.7C557 49.7 600 44.3 642.8 41.2C685.7 38 728.3 37 771.2 35.7C814 34.3 857 32.7 878.5 31.8L900 31L900 0L878.5 0C857 0 814 0 771.2 0C728.3 0 685.7 0 642.8 0C600 0 557 0 514.2 0C471.3 0 428.7 0 385.8 0C343 0 300 0 257.2 0C214.3 0 171.7 0 128.8 0C86 0 43 0 21.5 0L0 0Z" fill="#da3f67"></path><path d="M0 17L21.5 17.8C43 18.7 86 20.3 128.8 21C171.7 21.7 214.3 21.3 257.2 21.2C300 21 343 21 385.8 22.2C428.7 23.3 471.3 25.7 514.2 24.3C557 23 600 18 642.8 18.3C685.7 18.7 728.3 24.3 771.2 27C814 29.7 857 29.3 878.5 29.2L900 29L900 0L878.5 0C857 0 814 0 771.2 0C728.3 0 685.7 0 642.8 0C600 0 557 0 514.2 0C471.3 0 428.7 0 385.8 0C343 0 300 0 257.2 0C214.3 0 171.7 0 128.8 0C86 0 43 0 21.5 0L0 0Z" fill="#c62368"></path></svg>