<svg id="visual" viewBox="0 0 960 300" width="960" height="300" xmlns="http://www.w3.org/2000/svg" xmlns:xlink="http://www.w3.org/1999/xlink" version="1.1"><rect x="0" y="0" width="960" height="300" fill="#202731"></rect><path d="M0 239L22.8 237.5C45.7 236 91.3 233 137 225.2C182.7 217.3 228.3 204.7 274 204.5C319.7 204.3 365.3 216.7 411.2 223.8C457 231 503 233 548.8 232.2C594.7 231.3 640.3 227.7 686 224.5C731.7 221.3 777.3 218.7 823 220.5C868.7 222.3 914.3 228.7 937.2 231.8L960 235L960 0L937.2 0C914.3 0 868.7 0 823 0C777.3 0 731.7 0 686 0C640.3 0 594.7 0 548.8 0C503 0 457 0 411.2 0C365.3 0 319.7 0 274 0C228.3 0 182.7 0 137 0C91.3 0 45.7 0 22.8 0L0 0Z" fill="#ffc900"></path><path d="M0 203L22.8 195C45.7 187 91.3 171 137 162.8C182.7 154.7 228.3 154.3 274 157.2C319.7 160 365.3 166 411.2 167.5C457 169 503 166 548.8 171.3C594.7 176.7 640.3 190.3 686 188.5C731.7 186.7 777.3 169.3 823 162.5C868.7 155.7 914.3 159.3 937.2 161.2L960 163L960 0L937.2 0C914.3 0 868.7 0 823 0C777.3 0 731.7 0 686 0C640.3 0 594.7 0 548.8 0C503 0 457 0 411.2 0C365.3 0 319.7 0 274 0C228.3 0 182.7 0 137 0C91.3 0 45.7 0 22.8 0L0 0Z" fill="#ffa800"></path><path d="M0 121L22.8 126.3C45.7 131.7 91.3 142.3 137 141C182.7 139.7 228.3 126.3 274 123C319.7 119.7 365.3 126.3 411.2 126.3C457 126.3 503 119.7 548.8 120.3C594.7 121 640.3 129 686 132.5C731.7 136 777.3 135 823 132.3C868.7 129.7 914.3 125.3 937.2 123.2L960 121L960 0L937.2 0C914.3 0 868.7 0 823 0C777.3 0 731.7 0 686 0C640.3 0 594.7 0 548.8 0C503 0 457 0 411.2 0C365.3 0 319.7 0 274 0C228.3 0 182.7 0 137 0C91.3 0 45.7 0 22.8 0L0 0Z" fill="#ff8600"></path><path d="M0 92L22.8 89.2C45.7 86.3 91.3 80.7 137 84.3C182.7 88 228.3 101 274 102.3C319.7 103.7 365.3 93.3 411.2 92.7C457 92 503 101 548.8 101.2C594.7 101.3 640.3 92.7 686 88.5C731.7 84.3 777.3 84.7 823 87.3C868.7 90 914.3 95 937.2 97.5L960 100L960 0L937.2 0C914.3 0 868.7 0 823 0C777.3 0 731.7 0 686 0C640.3 0 594.7 0 548.8 0C503 0 457 0 411.2 0C365.3 0 319.7 0 274 0C228.3 0 182.7 0 137 0C91.3 0 45.7 0 22.8 0L0 0Z" fill="#ff5f00"></path><path d="M0 35L22.8 34C45.7 33 91.3 31 137 32.7C182.7 34.3 228.3 39.7 274 40C319.7 40.3 365.3 35.7 411.2 39.2C457 42.7 503 54.3 548.8 54.7C594.7 55 640.3 44 686 42.3C731.7 40.7 777.3 48.3 823 52.5C868.7 56.7 914.3 57.3 937.2 57.7L960 58L960 0L937.2 0C914.3 0 868.7 0 823 0C777.3 0 731.7 0 686 0C640.3 0 594.7 0 548.8 0C503 0 457 0 411.2 0C365.3 0 319.7 0 274 0C228.3 0 182.7 0 137 0C91.3 0 45.7 0 22.8 0L0 0Z" fill="#ff1f00"></path></svg>